<?xml version="1.0" encoding="UTF-8" standalone="no"?>
<!-- Created with Inkscape (http://www.inkscape.org/) -->

<svg
   xmlns:dc="http://purl.org/dc/elements/1.1/"
   xmlns:cc="http://creativecommons.org/ns#"
   xmlns:rdf="http://www.w3.org/1999/02/22-rdf-syntax-ns#"
   xmlns:svg="http://www.w3.org/2000/svg"
   xmlns="http://www.w3.org/2000/svg"
   xmlns:sodipodi="http://sodipodi.sourceforge.net/DTD/sodipodi-0.dtd"
   xmlns:inkscape="http://www.inkscape.org/namespaces/inkscape"
   width="255.00436mm"
   height="57.855553mm"
   viewBox="0 0 255.00436 57.855553"
   version="1.1"
   id="svg1280"
   inkscape:version="0.92.5 (2060ec1f9f, 2020-04-08)"
   sodipodi:docname="artefacts_logo_Web.svg">
  <defs
     id="defs1274" />
  <sodipodi:namedview
     id="base"
     pagecolor="#ffffff"
     bordercolor="#666666"
     borderopacity="1.0"
     inkscape:pageopacity="0.0"
     inkscape:pageshadow="2"
     inkscape:zoom="0.35"
     inkscape:cx="867.61228"
     inkscape:cy="-487.80953"
     inkscape:document-units="mm"
     inkscape:current-layer="layer1"
     showgrid="false"
     inkscape:window-width="1143"
     inkscape:window-height="1391"
     inkscape:window-x="1146"
     inkscape:window-y="20"
     inkscape:window-maximized="0"
     inkscape:pagecheckerboard="true"
     fit-margin-top="0"
     fit-margin-left="0"
     fit-margin-right="0"
     fit-margin-bottom="0" />
  <metadata
     id="metadata1277">
    <rdf:RDF>
      <cc:Work
         rdf:about="">
        <dc:format>image/svg+xml</dc:format>
        <dc:type
           rdf:resource="http://purl.org/dc/dcmitype/StillImage" />
        <dc:title></dc:title>
      </cc:Work>
    </rdf:RDF>
  </metadata>
  <g
     inkscape:label="Layer 1"
     inkscape:groupmode="layer"
     id="layer1"
     transform="translate(249.21051,38.088491)">
    <g
       id="g875"
       transform="matrix(0.35277777,0,0,-0.35277777,-168.25162,-15.964635)">
      <path
         d="m 0,0 -11.183,-28.622 h 22.556 z m 21.087,-53.406 -5.828,14.784 h -30.328 l -5.781,-14.784 h -11.847 l 27.295,67.953 h 10.52 l 28.101,-67.953 z"
         style="fill:#ffffff;fill-opacity:1;fill-rule:nonzero;stroke:none"
         id="path877"
         inkscape:connector-curvature="0" />
    </g>
    <g
       id="g879"
       transform="matrix(0.35277777,0,0,-0.35277777,-149.43596,-17.401746)">
      <path
         d="m 0,0 v -21.891 h 14.643 c 3.664,0 6.602,1.017 8.814,3.056 2.21,2.037 3.317,4.667 3.317,7.889 0,3.191 -1.113,5.813 -3.341,7.867 C 21.206,-1.026 18.275,0 14.643,0 Z M 27.485,-57.48 12.889,-32.317 H 0 V -57.48 h -11.183 v 67.954 h 26.442 c 6.57,0 12.02,-2.022 16.348,-6.066 4.328,-4.044 6.492,-9.193 6.492,-15.448 0,-4.55 -1.248,-8.585 -3.743,-12.108 -2.496,-3.524 -5.845,-6.058 -10.046,-7.606 L 39.995,-57.48 Z"
         style="fill:#ffffff;fill-opacity:1;fill-rule:nonzero;stroke:none"
         id="path881"
         inkscape:connector-curvature="0" />
    </g>
    <g
       id="g883"
       transform="matrix(0.35277777,0,0,-0.35277777,-116.19363,-21.096573)">
      <path
         d="m 0,0 0.047,-10.425 h -19.95 v -57.528 h -11.136 v 57.528 H -50.941 V 0 Z"
         style="fill:#ffffff;fill-opacity:1;fill-rule:nonzero;stroke:none"
         id="path885"
         inkscape:connector-curvature="0" />
    </g>
    <g
       id="g887"
       transform="matrix(0.35277777,0,0,-0.35277777,-108.81258,-0.83528323)">
      <path
         d="M 0,0 H 29.333 V -10.52 H -11.183 V 57.434 H 28.29 V 46.96 H 0 V 29.239 H 25.779 V 19.003 H 0 Z"
         style="fill:#ffffff;fill-opacity:1;fill-rule:nonzero;stroke:none"
         id="path889"
         inkscape:connector-curvature="0" />
    </g>
    <g
       id="g891"
       transform="matrix(0.35277777,0,0,-0.35277777,-80.250733,-17.401746)">
      <path
         d="M 0,0 H -28.006 V -19.238 H -2.512 V -29.473 H -28.006 V -57.48 H -39.189 V 10.474 H 0 Z"
         style="fill:#ffffff;fill-opacity:1;fill-rule:nonzero;stroke:none"
         id="path893"
         inkscape:connector-curvature="0" />
    </g>
    <g
       id="g895"
       transform="matrix(0.35277777,0,0,-0.35277777,-69.041683,-15.964635)">
      <path
         d="m 0,0 -11.184,-28.622 h 22.557 z m 21.087,-53.406 -5.828,14.784 h -30.328 l -5.781,-14.784 h -11.847 l 27.295,67.953 h 10.52 l 28.101,-67.953 z"
         style="fill:#ffffff;fill-opacity:1;fill-rule:nonzero;stroke:none"
         id="path897"
         inkscape:connector-curvature="0" />
    </g>
    <g
       id="g899"
       transform="matrix(0.35277777,0,0,-0.35277777,-44.258033,3.2935658)">
      <path
         d="m 0,0 c -4.96,0 -9.604,0.885 -13.932,2.654 -4.329,1.767 -8.025,4.193 -11.089,7.272 -3.064,3.081 -5.481,6.801 -7.25,11.161 -1.77,4.359 -2.654,9.035 -2.654,14.026 0,4.992 0.884,9.674 2.654,14.05 1.769,4.376 4.186,8.111 7.25,11.207 3.064,3.096 6.76,5.528 11.089,7.299 4.328,1.768 8.972,2.654 13.932,2.654 8.024,0 15.005,-2.308 20.945,-6.92 5.94,-4.613 9.793,-10.742 11.563,-18.387 H 21.229 C 19.618,49.534 16.933,53.08 13.174,55.656 9.414,58.23 5.023,59.518 0,59.518 c -6.824,0 -12.463,-2.299 -16.917,-6.895 -4.455,-4.597 -6.682,-10.433 -6.682,-17.51 0,-7.076 2.227,-12.906 6.682,-17.485 4.454,-4.582 10.093,-6.872 16.917,-6.872 5.181,0 9.667,1.375 13.458,4.122 3.791,2.75 6.46,6.541 8.009,11.373 H 32.792 C 31.022,18.258 27.16,11.885 21.206,7.131 15.25,2.376 8.181,0 0,0"
         style="fill:#ffffff;fill-opacity:1;fill-rule:nonzero;stroke:none"
         id="path901"
         inkscape:connector-curvature="0" />
    </g>
    <g
       id="g903"
       transform="matrix(0.35277777,0,0,-0.35277777,-13.623303,-21.096573)">
      <path
         d="m 0,0 0.047,-10.425 h -19.95 v -57.528 h -11.136 v 57.528 H -50.941 V 0 Z"
         style="fill:#ffffff;fill-opacity:1;fill-rule:nonzero;stroke:none"
         id="path905"
         inkscape:connector-curvature="0" />
    </g>
    <g
       id="g907"
       transform="matrix(0.35277777,0,0,-0.35277777,-2.9324631,3.2437188)">
      <path
         d="m 0,0 c -7.708,0 -13.909,2.014 -18.599,6.042 -4.693,4.027 -7.038,9.484 -7.038,16.373 h 11.326 c 0,-3.666 1.334,-6.541 4.004,-8.626 2.669,-2.085 6.073,-3.126 10.212,-3.126 3.76,0 6.935,0.915 9.525,2.747 2.59,1.832 3.886,4.266 3.886,7.299 0,0.662 -0.064,1.285 -0.19,1.871 -0.126,0.585 -0.348,1.129 -0.663,1.634 -0.316,0.506 -0.616,0.956 -0.9,1.352 -0.285,0.394 -0.736,0.781 -1.351,1.161 C 9.595,27.106 9.09,27.43 8.696,27.698 8.3,27.965 7.677,28.25 6.824,28.551 c -0.853,0.3 -1.517,0.537 -1.991,0.711 -0.473,0.173 -1.224,0.394 -2.251,0.664 -1.027,0.267 -1.785,0.457 -2.274,0.568 -0.49,0.11 -1.303,0.308 -2.441,0.592 -5.781,1.39 -9.951,2.702 -12.51,3.932 -5.75,2.781 -8.973,7.03 -9.667,12.748 -0.126,0.885 -0.189,1.801 -0.189,2.749 0,6.097 2.14,10.867 6.42,14.311 4.281,3.443 10.07,5.166 17.368,5.166 7.328,0 13.071,-1.866 17.225,-5.593 4.154,-3.728 6.232,-8.813 6.232,-15.257 H 11.752 c 0,3.283 -1.193,5.851 -3.578,7.7 -2.385,1.847 -5.426,2.771 -9.122,2.771 -3.538,0 -6.484,-0.766 -8.837,-2.298 -2.355,-1.533 -3.531,-3.641 -3.531,-6.326 0,-1.011 0.166,-1.927 0.498,-2.749 0.331,-0.821 0.884,-1.556 1.658,-2.203 0.774,-0.648 1.532,-1.193 2.274,-1.634 0.743,-0.444 1.801,-0.886 3.176,-1.327 1.374,-0.444 2.527,-0.791 3.459,-1.044 C -1.319,41.779 0,41.448 1.706,41.037 7.55,39.584 11.768,38.241 14.358,37.01 c 5.907,-2.876 9.288,-7.187 10.141,-12.937 0.158,-1.043 0.237,-2.133 0.237,-3.271 0,-4.391 -1.114,-8.182 -3.34,-11.373 C 19.168,6.239 16.206,3.869 12.51,2.323 8.814,0.775 4.644,0 0,0"
         style="fill:#ffffff;fill-opacity:1;fill-rule:nonzero;stroke:none"
         id="path909"
         inkscape:connector-curvature="0" />
    </g>
    <g
       id="g911"
       transform="matrix(0.35277777,0,0,-0.35277777,-208.88519,18.355952)">
      <path
         d="m 0,0 h -15.589 l 7.795,18.818 18.818,-7.794 z m -19.918,0 h -10.39 V 28.144 L -11.49,20.349 Z M -32.308,33.301 -63.914,46.395 -77.006,78 -63.914,109.607 -32.308,122.699 -0.701,109.607 12.391,78 -0.701,46.395 Z M -34.308,0 h -10.389 l -8.429,20.35 18.818,7.795 z M -64.617,0 -75.64,11.024 -56.822,18.819 -49.027,0 Z m 2.867,41.167 24.215,-10.029 -17.122,-7.093 z m -24.298,-19.735 19.901,19.9 7.794,-18.818 -20.349,-8.429 z m -10.175,10.174 8.429,20.35 18.818,-7.795 -19.9,-19.901 z m -3.062,3.062 -11.023,11.023 v 15.59 L -91.49,53.486 Z M -110.308,76 h 28.144 l -7.795,-18.818 -20.349,8.429 z m 0,14.389 20.35,8.429 L -82.164,80 h -28.144 z m 0,19.92 11.023,11.024 7.795,-18.819 -18.818,-7.795 z m 41.168,-61.751 -17.123,7.093 7.092,17.123 z m -17.123,51.791 17.122,7.092 -10.03,-24.214 z m -2.613,31.392 19.9,-19.902 -18.818,-7.794 -8.429,20.349 z m 10.174,10.175 20.349,-8.429 -7.794,-18.819 -19.901,19.901 z M -64.618,156 h 15.591 l -7.795,-18.818 -18.819,7.795 z m 27.085,-31.137 -24.217,-10.031 7.093,17.124 z M -44.698,156 h 10.39 v -28.143 l -18.818,7.795 z m 14.39,0 h 10.39 l 8.429,-20.349 -18.819,-7.795 z m 30.31,0 11.024,-11.023 -18.819,-7.795 -7.795,18.818 z m -2.868,-41.166 -24.215,10.029 17.123,7.093 z m 24.299,19.735 -19.901,-19.901 -7.795,18.818 20.35,8.43 z M 31.608,124.395 23.179,104.046 4.36,111.84 24.261,131.741 Z M 45.692,110.311 V 94.72 l -18.817,7.795 7.794,18.818 z m 0,-30.309 -28.143,-10e-4 7.794,18.818 20.349,-8.428 z m 0,-14.39 -20.349,-8.429 -7.795,18.818 28.144,10e-4 z m 0,-19.919 -11.024,-11.024 -7.794,18.819 18.818,7.795 z M 4.525,107.443 21.648,100.35 14.555,83.227 Z M 21.647,55.652 4.525,48.56 14.555,72.774 Z M 24.26,24.26 4.359,44.161 l 18.819,7.796 8.429,-20.35 z m -34.219,-0.215 -17.124,7.093 24.217,10.031 z m 24.044,-9.96 -20.348,8.429 7.795,18.818 19.9,-19.9 z m 35.607,29.952 v 67.93 L 1.657,160 h -67.929 l -48.036,-48.033 V 44.035 L -66.272,-4 H 1.656 Z"
         style="fill:#ffffff;fill-opacity:1;fill-rule:nonzero;stroke:none"
         id="path913"
         inkscape:connector-curvature="0" />
    </g>
  </g>
</svg>
