<?xml version="1.0" encoding="UTF-8" standalone="no"?>
<!-- Created with Inkscape (http://www.inkscape.org/) -->

<svg
   xmlns:dc="http://purl.org/dc/elements/1.1/"
   xmlns:cc="http://creativecommons.org/ns#"
   xmlns:rdf="http://www.w3.org/1999/02/22-rdf-syntax-ns#"
   xmlns:svg="http://www.w3.org/2000/svg"
   xmlns="http://www.w3.org/2000/svg"
   xmlns:sodipodi="http://sodipodi.sourceforge.net/DTD/sodipodi-0.dtd"
   xmlns:inkscape="http://www.inkscape.org/namespaces/inkscape"
   width="95.611107mm"
   height="87.880241mm"
   viewBox="0 0 95.611107 87.880241"
   version="1.1"
   id="svg1268"
   inkscape:version="0.92.5 (2060ec1f9f, 2020-04-08)"
   sodipodi:docname="artefacts_logo_web_v.svg">
  <defs
     id="defs1262" />
  <sodipodi:namedview
     id="base"
     pagecolor="#ffffff"
     bordercolor="#666666"
     borderopacity="1.0"
     inkscape:pageopacity="0.0"
     inkscape:pageshadow="2"
     inkscape:zoom="0.98994949"
     inkscape:cx="365.24414"
     inkscape:cy="537.49372"
     inkscape:document-units="mm"
     inkscape:current-layer="layer1"
     showgrid="false"
     fit-margin-top="0"
     fit-margin-left="0"
     fit-margin-right="0"
     fit-margin-bottom="0"
     inkscape:window-width="1436"
     inkscape:window-height="1859"
     inkscape:window-x="0"
     inkscape:window-y="786"
     inkscape:window-maximized="0" />
  <metadata
     id="metadata1265">
    <rdf:RDF>
      <cc:Work
         rdf:about="">
        <dc:format>image/svg+xml</dc:format>
        <dc:type
           rdf:resource="http://purl.org/dc/dcmitype/StillImage" />
        <dc:title></dc:title>
      </cc:Work>
    </rdf:RDF>
  </metadata>
  <g
     inkscape:label="Layer 1"
     inkscape:groupmode="layer"
     id="layer1"
     transform="translate(-24.765873,-100.3575)">
    <g
       id="g12"
       transform="matrix(0.35277777,0,0,-0.35277777,83.968915,156.80194)"
       style="fill:#ffffff;fill-opacity:0.99502486">
      <path
         d="m 0,0 h -15.589 l 7.795,18.818 18.818,-7.794 z m -19.918,0 h -10.39 V 28.144 L -11.49,20.349 Z M -32.308,33.301 -63.914,46.395 -77.006,78 -63.914,109.607 -32.308,122.699 -0.701,109.607 12.391,78 -0.701,46.395 Z M -34.308,0 h -10.389 l -8.429,20.35 18.818,7.795 z M -64.617,0 -75.64,11.024 -56.822,18.819 -49.027,0 Z m 2.867,41.167 24.215,-10.029 -17.122,-7.093 z m -24.298,-19.735 19.901,19.9 7.794,-18.818 -20.349,-8.429 z m -10.175,10.174 8.429,20.35 18.818,-7.795 -19.9,-19.901 z m -3.062,3.062 -11.023,11.023 v 15.59 L -91.49,53.486 Z M -110.308,76 h 28.144 l -7.795,-18.818 -20.349,8.429 z m 0,14.389 20.35,8.429 L -82.164,80 h -28.144 z m 0,19.92 11.023,11.024 7.795,-18.819 -18.818,-7.795 z m 41.168,-61.751 -17.123,7.093 7.092,17.123 z m -17.123,51.791 17.122,7.092 -10.03,-24.214 z m -2.613,31.392 19.9,-19.902 -18.818,-7.794 -8.429,20.349 z m 10.174,10.175 20.349,-8.429 -7.794,-18.819 -19.901,19.901 z M -64.618,156 h 15.591 l -7.795,-18.818 -18.819,7.795 z m 27.085,-31.137 -24.217,-10.031 7.093,17.124 z M -44.698,156 h 10.39 v -28.143 l -18.818,7.795 z m 14.39,0 h 10.39 l 8.429,-20.349 -18.819,-7.795 z m 30.31,0 11.024,-11.023 -18.819,-7.795 -7.795,18.818 z m -2.868,-41.166 -24.215,10.029 17.123,7.093 z m 24.299,19.735 -19.901,-19.901 -7.795,18.818 20.35,8.43 z M 31.608,124.395 23.179,104.046 4.36,111.84 24.261,131.741 Z M 45.692,110.311 V 94.72 l -18.817,7.795 7.794,18.818 z m 0,-30.309 -28.143,-10e-4 7.794,18.818 20.349,-8.428 z m 0,-14.39 -20.349,-8.429 -7.795,18.818 28.144,10e-4 z m 0,-19.919 -11.024,-11.024 -7.794,18.819 18.818,7.795 z M 4.525,107.443 21.648,100.35 14.555,83.227 Z M 21.647,55.652 4.525,48.56 14.555,72.774 Z M 24.26,24.26 4.359,44.161 l 18.819,7.796 8.429,-20.35 z m -34.219,-0.215 -17.124,7.093 24.217,10.031 z m 24.044,-9.96 -20.348,8.429 7.795,18.818 19.9,-19.9 z m 35.607,29.952 v 67.93 L 1.657,160 h -67.929 l -48.036,-48.033 V 44.035 L -66.272,-4 H 1.656 Z"
         style="fill:#ffffff;fill-opacity:0.99502486;fill-rule:nonzero;stroke:none"
         id="path14"
         inkscape:connector-curvature="0" />
    </g>
    <g
       id="g16"
       transform="matrix(0.35277777,0,0,-0.35277777,30.708767,178.31587)"
       style="fill:#ffffff;fill-opacity:0.99502486">
      <path
         d="M 0,0 -5.762,-14.746 H 5.859 Z m 10.863,-27.516 -3.002,7.618 H -7.764 l -2.978,-7.618 h -6.104 l 14.063,35.01 h 5.42 l 14.476,-35.01 z"
         style="fill:#ffffff;fill-opacity:0.99502486;fill-rule:nonzero;stroke:none"
         id="path18"
         inkscape:connector-curvature="0" />
    </g>
    <g
       id="g28"
       transform="matrix(0.35277777,0,0,-0.35277777,40.402572,177.57586)"
       style="fill:#ffffff;fill-opacity:0.99502486">
      <path
         d="m 0,0 v -11.277 h 7.543 c 1.889,0 3.402,0.523 4.541,1.574 1.139,1.049 1.709,2.404 1.709,4.064 0,1.645 -0.572,2.994 -1.721,4.053 C 10.926,-0.527 9.414,0 7.543,0 Z M 14.16,-29.613 6.641,-16.648 H 0 V -29.613 H -5.762 V 5.396 H 7.861 c 3.385,0 6.192,-1.041 8.422,-3.125 2.231,-2.084 3.346,-4.736 3.346,-7.958 0,-2.344 -0.645,-4.424 -1.93,-6.239 -1.285,-1.814 -3.011,-3.121 -5.176,-3.918 l 8.082,-13.769 z"
         style="fill:#ffffff;fill-opacity:0.99502486;fill-rule:nonzero;stroke:none"
         id="path30"
         inkscape:connector-curvature="0" />
    </g>
    <g
       id="g32"
       transform="matrix(0.35277777,0,0,-0.35277777,57.528838,175.67207)"
       style="fill:#ffffff;fill-opacity:0.99502486">
      <path
         d="M 0,0 0.025,-5.371 H -10.254 V -35.01 H -15.99 V -5.371 H -26.244 V 0 Z"
         style="fill:#ffffff;fill-opacity:0.99502486;fill-rule:nonzero;stroke:none"
         id="path34"
         inkscape:connector-curvature="0" />
    </g>
    <g
       id="g36"
       transform="matrix(0.35277777,0,0,-0.35277777,61.331536,186.11073)"
       style="fill:#ffffff;fill-opacity:0.99502486">
      <path
         d="M 0,0 H 15.113 V -5.42 H -5.762 V 29.59 H 14.576 V 24.193 H 0 V 15.064 H 13.281 V 9.791 H 0 Z"
         style="fill:#ffffff;fill-opacity:0.99502486;fill-rule:nonzero;stroke:none"
         id="path38"
         inkscape:connector-curvature="0" />
    </g>
    <g
       id="g40"
       transform="matrix(0.35277777,0,0,-0.35277777,76.04692,177.57586)"
       style="fill:#ffffff;fill-opacity:0.99502486">
      <path
         d="m 0,0 h -14.43 v -9.91 h 13.135 v -5.274 H -14.43 v -14.429 h -5.761 V 5.396 H 0 Z"
         style="fill:#ffffff;fill-opacity:0.99502486;fill-rule:nonzero;stroke:none"
         id="path42"
         inkscape:connector-curvature="0" />
    </g>
    <g
       id="g44"
       transform="matrix(0.35277777,0,0,-0.35277777,81.821583,178.31587)"
       style="fill:#ffffff;fill-opacity:0.99502486">
      <path
         d="M 0,0 -5.762,-14.746 H 5.859 Z m 10.865,-27.516 -3.004,7.618 H -7.764 l -2.978,-7.618 h -6.104 l 14.063,35.01 h 5.42 l 14.478,-35.01 z"
         style="fill:#ffffff;fill-opacity:0.99502486;fill-rule:nonzero;stroke:none"
         id="path46"
         inkscape:connector-curvature="0" />
    </g>
    <g
       id="g48"
       transform="matrix(0.35277777,0,0,-0.35277777,94.590481,188.23774)"
       style="fill:#ffffff;fill-opacity:0.99502486">
      <path
         d="m 0,0 c -2.557,0 -4.949,0.455 -7.178,1.367 -2.23,0.91 -4.135,2.16 -5.713,3.746 -1.58,1.588 -2.824,3.504 -3.736,5.75 -0.912,2.246 -1.367,4.655 -1.367,7.227 0,2.572 0.455,4.984 1.367,7.238 0.912,2.254 2.156,4.18 3.736,5.774 1.578,1.595 3.483,2.849 5.713,3.761 2.229,0.91 4.621,1.367 7.178,1.367 4.133,0 7.73,-1.189 10.791,-3.566 3.059,-2.375 5.045,-5.533 5.957,-9.473 h -5.81 C 10.107,25.52 8.723,27.346 6.787,28.674 4.85,30 2.588,30.664 0,30.664 c -3.516,0 -6.422,-1.185 -8.717,-3.553 -2.295,-2.369 -3.441,-5.375 -3.441,-9.021 0,-3.647 1.146,-6.649 3.441,-9.008 C -6.422,6.721 -3.516,5.541 0,5.541 c 2.668,0 4.98,0.709 6.934,2.123 1.953,1.418 3.328,3.371 4.125,5.859 h 5.836 C 15.982,9.406 13.992,6.123 10.926,3.674 7.857,1.223 4.215,0 0,0"
         style="fill:#ffffff;fill-opacity:0.99502486;fill-rule:nonzero;stroke:none"
         id="path50"
         inkscape:connector-curvature="0" />
    </g>
    <g
       id="g52"
       transform="matrix(0.35277777,0,0,-0.35277777,110.37317,175.67207)"
       style="fill:#ffffff;fill-opacity:0.99502486">
      <path
         d="M 0,0 0.025,-5.371 H -10.254 V -35.01 H -15.99 V -5.371 H -26.244 V 0 Z"
         style="fill:#ffffff;fill-opacity:0.99502486;fill-rule:nonzero;stroke:none"
         id="path54"
         inkscape:connector-curvature="0" />
    </g>
    <g
       id="g56"
       transform="matrix(0.35277777,0,0,-0.35277777,115.88118,188.21224)"
       style="fill:#ffffff;fill-opacity:0.99502486">
      <path
         d="M 0,0 C -3.971,0 -7.166,1.037 -9.582,3.113 -12,5.187 -13.207,8 -13.207,11.549 h 5.834 c 0,-1.889 0.687,-3.371 2.062,-4.445 1.377,-1.075 3.129,-1.61 5.262,-1.61 1.938,0 3.572,0.471 4.908,1.414 1.334,0.946 2.002,2.199 2.002,3.762 0,0.34 -0.033,0.662 -0.097,0.963 -0.067,0.301 -0.18,0.582 -0.342,0.842 -0.164,0.261 -0.318,0.492 -0.465,0.697 -0.146,0.203 -0.379,0.402 -0.695,0.598 -0.319,0.195 -0.578,0.361 -0.782,0.5 -0.203,0.138 -0.525,0.285 -0.964,0.439 -0.44,0.154 -0.782,0.277 -1.026,0.367 -0.244,0.088 -0.631,0.203 -1.16,0.342 -0.527,0.137 -0.918,0.234 -1.172,0.293 -0.252,0.057 -0.67,0.158 -1.256,0.305 -2.978,0.716 -5.127,1.392 -6.445,2.025 -2.963,1.434 -4.623,3.623 -4.98,6.568 -0.067,0.455 -0.098,0.928 -0.098,1.416 0,3.141 1.101,5.6 3.307,7.373 2.207,1.774 5.189,2.663 8.949,2.663 3.775,0 6.734,-0.961 8.873,-2.883 2.14,-1.92 3.211,-4.539 3.211,-7.86 H 6.055 c 0,1.692 -0.614,3.014 -1.844,3.967 -1.229,0.951 -2.795,1.428 -4.699,1.428 -1.823,0 -3.34,-0.395 -4.553,-1.184 -1.213,-0.791 -1.818,-1.877 -1.818,-3.259 0,-0.522 0.084,-0.993 0.255,-1.416 0.17,-0.424 0.456,-0.803 0.854,-1.135 0.4,-0.334 0.791,-0.615 1.172,-0.842 0.383,-0.229 0.928,-0.457 1.637,-0.684 0.707,-0.228 1.302,-0.408 1.781,-0.539 0.48,-0.129 1.16,-0.3 2.039,-0.511 3.012,-0.748 5.183,-1.442 6.519,-2.075 3.043,-1.482 4.786,-3.703 5.225,-6.666 0.08,-0.537 0.121,-1.099 0.121,-1.685 0,-2.262 -0.574,-4.215 -1.721,-5.86 C 9.875,3.215 8.35,1.994 6.445,1.197 4.541,0.398 2.393,0 0,0"
         style="fill:#ffffff;fill-opacity:0.99502486;fill-rule:nonzero;stroke:none"
         id="path58"
         inkscape:connector-curvature="0" />
    </g>
  </g>
</svg>
